<?xml version="1.0" encoding="utf-8"?>
<!-- Svg Vector Icons : http://www.onlinewebfonts.com/icon -->
<!DOCTYPE svg PUBLIC "-//W3C//DTD SVG 1.1//EN" "http://www.w3.org/Graphics/SVG/1.1/DTD/svg11.dtd">
<svg version="1.1" xmlns="http://www.w3.org/2000/svg" xmlns:xlink="http://www.w3.org/1999/xlink" x="0px" y="0px" viewBox="0 0 1000 1000" enable-background="new 0 0 1000 1000" xml:space="preserve">
<metadata> Svg Vector Icons : http://www.onlinewebfonts.com/icon </metadata>
<g><path d="M500,9.4C229.8,9.4,10,229.5,10,500c0,270.5,219.8,490.6,490,490.6c270.2,0,490-220.1,490-490.6C990,229.5,770.2,9.4,500,9.4z M500,968.5C242,968.5,32.1,758.3,32.1,500C32.1,241.7,242,31.5,500,31.5c258,0,467.9,210.2,467.9,468.5C967.9,758.3,758,968.5,500,968.5z"/><path d="M627.5,649H379.4c-6.4,0-11.5,5.2-11.5,11.5v4.5c0,6.4,5.2,11.5,11.5,11.5h248.2c6.4,0,11.5-5.2,11.5-11.5v-4.5C639.1,654.1,633.9,649,627.5,649z"/><path d="M627.5,558.9H379.4c-6.4,0-11.5,5.2-11.5,11.5v4.5c0,6.4,5.2,11.5,11.5,11.5h248.2c6.4,0,11.5-5.2,11.5-11.5v-4.5C639.1,564.1,633.9,558.9,627.5,558.9z"/><path d="M627.5,468.7H379.4c-6.4,0-11.5,5.2-11.5,11.5v4.6c0,6.4,5.2,11.5,11.5,11.5h248.2c6.4,0,11.5-5.2,11.5-11.5v-4.6C639.1,473.8,633.9,468.7,627.5,468.7z"/><path d="M673.7,295.7h-55.6v-34.6h-39c-12.1-28.8-47.8-48.5-79.1-48.5c-31.4,0-67.2,19.3-79.2,48.5h-38.9v34.6h-55.6c-38.4,0-69.5,31-69.5,69.2v353.1c0,38.2,31.1,69.3,69.5,69.3h347.4c38.4,0,69.5-31,69.5-69.3V365C743.2,326.7,712.1,295.7,673.7,295.7z M500,240.3c25.4,0,39.3,10.3,46.8,20.8h-93.9C460.4,250.7,474.3,240.3,500,240.3z M722.3,704.3c0,38.2-24.2,62.3-62.5,62.3H340.2c-38.4,0-62.5-24.1-62.5-62.3V378.8c0-38.2,24.2-62.3,62.5-62.3h41.7v83.1h236.2v-83.1h41.7c38.4,0,62.5,24.1,62.5,62.3L722.3,704.3L722.3,704.3z"/></g>
</svg>